# xmcd
#
# Track frame offsets:
#	150
#	14060
#	41366
#	66628
#	79259
#	114026
#	135578
#	151954
#	187206
#
# Disc length: 2757 seconds
#
# Revision: 1
# Processed by: cddbd v1.5.1PL2 Copyright (c) Steve Scherf et al.
# Submitted via: audiograbber 1.83.01
#
DISCID=780ac309
DTITLE=Alaska - 2001-10-13 - Ralphstock 2001 - Naylor Winery - Stewartstown PA
DYEAR=2001
DGENRE=Progressive Rock
TTITLE0=Hexed
TTITLE1=Phantasmagoria
TTITLE2=Dungeons Of Fire
TTITLE3=Ralph's Other Ball
TTITLE4=Memory Bank I
TTITLE5=Lawyers, Guns And Money
TTITLE6=Squeeze Box
TTITLE7=Mary Jane's Last Dance
TTITLE8=Rockin' In The Free World
EXTD=
EXTT0=
EXTT1=
EXTT2=
EXTT3=
EXTT4=
EXTT5=
EXTT6=
EXTT7=
EXTT8=
PLAYORDER=
